<?xml version="1.0" encoding="UTF-8"?>
<svg enable-background="new 0 0 1000 408.2" version="1.1" viewBox="0 0 1e3 408.2" xml:space="preserve" xmlns="http://www.w3.org/2000/svg">
	<style type="text/css">
	.st0{fill:#5400AF;}
</style>


	<path class="st0" d="m673.6 185.1h3c3.7-13.4 5.9-26.8 5.9-41.6 0-12.6-1.5-24.5-4.5-35.7h-6.7c3 11.2 4.5 23 4.5 35.7 0 14.1-2.2 28.3-5.9 40.9 1.5 0.7 2.2 0.7 3.7 0.7z" />

	<path class="st0" d="m666.9 77.3c-2.2-4.5-5.2-9.7-8.2-14.1v11.9c0 0.7 0.7 1.5 0.7 2.2h7.5z" />

	<path class="st0" d="m402.2 120.4c11.2-64.6 67.7-114.5 136.1-114.5 38.7 0 72.9 15.6 98.1 40.9l6.7-2.2c-26-27.5-63.2-44.6-104.8-44.6-69.9 0-128.6 49.8-142 116 2.2 1.5 4.4 3 5.9 4.4z" />

	<path class="st0" d="m403 194.1c11.2 31.2 32.7 56.5 61 73.6 2.2-0.7 5.2-2.2 8.2-2.2-22.3-11.9-40.9-30.5-53.5-52v-0.7c-4.5-7.4-8.2-15.6-11.2-23.8-1.6 1.3-3 3.6-4.5 5.1z" />

	<path class="st0" d="m575.5 277.3c-0.7 0-1.5 0.7-2.2 0.7 0.7 0.7 1.5 0.7 2.2 1.5v-2.2z" />

	<path class="st0" d="m609.7 269.9c22.3-12.6 40.9-31.2 53.5-52.8-2.2 0-4.5 0-6.7-0.7-12.6 20.8-31.2 37.9-52.8 49.8h5.9v3.7z" />

	<path class="st0" d="m495.9 278.1c0.7-0.7 1.5-0.7 2.2-1.5-0.7 0-1.5-0.7-2.2-0.7v2.2z" />

	<path class="st0" d="m485.5 264.7c-24.5-11.2-45.4-29-59.5-52h-2.2c13.4 22.3 33.5 40.1 56.5 52h5.2z" />

	<path class="st0" d="m410.4 184.4c2.2 6.7 4.5 13.4 7.4 19.3v-5.2c-2.2-5.2-4.5-11.2-6.7-17.1 0.8 0.8 0.1 2.2-0.7 3z" />

	<path class="st0" d="m507.1 272.1c-3.7-0.7-7.4-2.2-11.2-3v2.2c2.2 0.7 5.2 1.5 7.4 2.2 1.5-0.6 2.3-1.4 3.8-1.4z" />

	<path class="st0" d="m418.6 84.8c-5.9 11.9-10.4 25.3-12.6 39.4 0.7 0.7 1.5 1.5 1.5 2.2 1.5-12.6 5.2-25.3 10.4-37.2v-4.5l0.7 0.1z" />

	<path class="st0" d="m632 48.3c-23.8-23.8-57.2-37.9-93.7-37.9-49.8 0-93.7 27.5-116.7 67.7h2.2c23-39.4 65.4-65.4 113.8-65.4 35.7 0 67.7 14.1 91.4 36.4l3-0.8z" />

	<path class="st0" d="m588.8 265.4h5.2c23.8-11.2 43.9-29 58-50.6-0.7 0-1.5-0.7-2.2-0.7-14.1 23.1-35.7 40.9-61 51.3z" />

	<path class="st0" d="m672.1 144.2c0-12.6-1.5-24.5-5.2-35.7h-2.2c3 11.2 5.2 23 5.2 35.7 0 13.4-2.2 26-5.9 38.7 0.7 0.7 1.5 0.7 2.2 0.7 4.4-12.6 5.9-26 5.9-39.4z" />

	<path class="st0" d="m575.5 270.6c-3.7 0.7-6.7 2.2-10.4 3 0.7 0.7 2.2 0.7 3 1.5 2.2-0.7 5.2-1.5 7.4-2.2v-2.3z" />

	<path class="st0" d="m667.7 144.2c0-12.6-1.5-24.5-5.2-36.4h-2.2c3.7 11.2 5.2 23.8 5.2 36.4 0 11.9-1.5 23-4.5 34.2 0.7 0.7 0.7 1.5 1.5 2.2 3.7-11.1 5.2-23.7 5.2-36.4z" />

	<path class="st0" d="m413.4 178.4c1.5 5.2 3 9.7 5.2 14.9v-5.9c-1.5-3.7-3-8.2-3.7-11.9-0.8 1.5-0.8 2.2-1.5 2.9z" />

	<path class="st0" d="m626.8 49.8c-23-21.6-54.3-34.9-88.5-34.9-46.8 0-88.5 25.3-110.8 63.2h2.2c22.3-36.4 62.5-61 108.6-61 33.5 0 63.2 12.6 86.2 33.5l2.3-0.8z" />

	<path class="st0" d="m513 269.1c-34.2-6.7-63.9-27.5-81.8-56.5h-2.2c14.1 23 36.4 41.6 61.7 52h5.9v2.2c4.5 1.5 8.9 3 13.4 3.7 0.8 0.1 2.3-0.6 3-1.4z" />

	<path class="st0" d="m418.6 101.9v-5.9c-4.5 10.4-7.4 21.6-8.9 33.5 0.7 0.7 1.5 2.2 1.5 3 1.4-10.6 3.7-21 7.4-30.6z" />

	<path class="st0" d="m577.7 265.4h5.9c26.8-9.7 49.1-28.3 63.9-52-0.7 0-1.5-0.7-2.2-0.7-14.8 24.5-38.6 43.8-67.6 52.7z" />

	<path class="st0" d="m575.5 268.4v-1.5c-5.2 1.5-11.2 3-17.1 3.7 1.5 0.7 2.2 0.7 3.7 1.5 5.2-1.5 9.6-2.2 13.4-3.7z" />

	<path class="st0" d="m418.6 179.2v-8.2c-0.7-2.2-0.7-3.7-1.5-5.9 0 1.5-0.7 3.7-0.7 5.2 0.7 3.7 1.4 6.7 2.2 8.9z" />

	<path class="st0" d="m418.6 117.5v-8.2c-2.2 8.9-4.5 17.8-4.5 26.8 0.7 1.5 1.5 3.7 1.5 5.2 0-7.5 0.8-15.6 3-23.8z" />

	<path class="st0" d="m659.5 175.5c2.2-9.7 3.7-20.1 3.7-30.5 0-11.9-1.5-23.8-5.2-34.9v8.2c2.2 8.9 3 17.8 3 26.8 0 8.9-0.7 17.8-3 26 0.7 1.4 1.5 2.9 1.5 4.4z" />

	<path class="st0" d="m524.2 266.9c-36.4-4.5-68.4-24.5-87.7-53.5h-2.2c18.6 29 49.1 49.1 84.8 55 1.3-0.7 2.8-1.5 5.1-1.5z" />

	<path class="st0" d="m622.3 53.5v-1.5c-22.3-20-51.3-31.9-83.3-31.9-44.6 0-83.3 23-105.6 58.7h2.2c21.6-34.2 60.2-56.5 103.3-56.5 32 0 61.7 12.6 83.3 32.7l0.1-1.5z" />

	<path class="st0" d="m547.2 266.9c2.2 0.7 3.7 0.7 5.9 1.5 37.9-4.5 70.6-26 90.7-57.2-0.7 0-1.5-0.7-1.5-0.7-20.7 31.9-54.9 53.4-95.1 56.4z" />

	<path class="st0" d="m628.3 196.3c-17.8 31.2-51.3 52-90 52-35.7 0-66.9-17.8-85.5-45.4v10.4h-11.9c21.6 30.5 57.2 50.6 98.1 50.6 42.4 0 79.6-22.3 101.1-55-2.2-1.5-4.5-3.7-5.9-5.9-3-2.3-4.5-4.5-5.9-6.7z" />

	<path class="st0" d="m622.3 77.3v-19.3c-21.6-20.8-51.3-34.2-83.3-34.2-41.6 0-78.8 21.6-99.6 53.5h14.8v6.7c18.6-26.8 49.8-44.6 84.8-44.6 32 0 61 14.1 79.6 37.2l3.7 0.7z" />

	<path class="st0" d="m622.3 171c-11.2 35.7-44.6 61-84 61-41.6 0-75.8-28.3-85.5-66.9v33.5c17.8 28.3 49.8 46.8 85.5 46.8 37.9 0 71.4-20.8 88.5-52-3-5.9-4.5-12.6-4.5-20.8v-1.6z" />

	<path class="st0" d="m615.6 77.3c-18.6-21.6-46.1-34.9-77.3-34.9-32.7 0-62.5 15.6-81 40.1 6.7-5.2 15.6-7.4 26-7.4 14.9-11.9 34.2-18.6 54.3-18.6 31.2 0 58 15.6 73.6 40.1v-17.8h2.2l2.2-1.5z" />

	<path class="st0" d="m622.3 116.7v-8.9h-3c0.8 3 2.3 6 3 8.9z" />

	<path class="st0" d="m614.9 108.6c3.7 8.2 5.9 16.4 7.4 25.3v-8.2c-1.5-5.9-3-11.9-5.9-17.1h-1.5z" />

	<path class="st0" d="m455 122.7c-0.7 4.5-1.5 8.9-2.2 13.4v16.4c4.5 43.9 40.9 78.1 85.5 78.1 40.9 0 75.8-29 84-67.7v-8.2c-5.2 41.6-40.9 74.3-84 74.3-46.8 0-84.8-37.9-84.8-84.8 0-9.7 1.5-18.6 4.5-26.8-0.8 1.6-2.2 3.8-3 5.3z" />

	<path class="st0" d="m611.9 102.6v-3c-14.9-25.3-42.4-41.6-73.6-41.6-19.3 0-36.4 5.9-51.3 17.1h2.2c14.1-9.7 30.5-15.6 49.1-15.6 32 0 59.5 17.1 73.6 43.1z" />

	<path class="st0" d="m538.3 67.7c-14.9 0-29 4.5-40.1 11.2v8.1c11.2-8.2 25.3-12.6 40.1-12.6 38.7 0 69.9 31.2 69.9 69.9 0 8.2-1.5 17.1-3.7 24.5-30.5-17.1-63.9-26.8-107.1-27.5-9.7 0-19.3 0-29 0.7 0.7-12.6 4.5-24.5 11.2-34.9h-4.5s-3 0.7-4.5 0.7c-5.9 11.2-9.7 23.8-9.7 37.2 0 42.4 34.2 77.3 77.3 77.3 42.4 0 77.3-34.2 77.3-77.3 0.1-43.1-34.1-77.3-77.2-77.3z" />

	<path class="st0" d="m88.5 110c17.1-9.7 22.3-21.6 21.6-35.7-1.5-26-17.8-40.9-52-43.9l-58.1 1.6v179.2h63.9 1.5c23.8 0 55.8-18.6 57.2-49.8 0.8-23.9-10.3-41.7-34.1-51.4zm-55.8-52.8h26c11.2 0 18.6 8.9 19.3 20.8 0 11.9-6.7 23.8-25.3 23.8h-20.7v-44.6h0.7zm21.6 127.9h-21.6v-58.7h26c21.6 1.5 29 9.7 29 30.5 0.8 19.3-12.6 27.5-33.4 28.2z" />

	<path class="st0" d="m358.4 211.2c14.9 0 32-6.7 43.9-19.3 1.5-1.5 3-3.7 4.5-5.2 0.7-1.5 2.2-3 3-5.2 0.7-0.7 0.7-2.2 1.5-3 0.7-0.7 0.7-2.2 1.5-3.7 0-0.7 0-1.5 0.7-1.5 0-0.7 0.7-1.5 0.7-1.5s0 0 0-0.7c0.7-2.2 0.7-4.5 1.5-6.7v-3.7-8.9-1.5c0-2.2-0.7-4.5-1.5-6.7v-0.7c-0.7-2.2-1.5-4.5-2.2-6.7-1.5-0.7-1.5-1.5-2.2-3s-1.5-2.2-2.2-3.7c-0.7-0.7-1.5-1.5-1.5-2.2-1.5-1.5-2.2-3-3.7-4.5-0.7-0.7-1.5-1.5-2.2-1.5l-3-3c-4.5-3-8.9-5.9-14.1-8.2 17.1-9.7 22.3-21.6 21.6-35.7-1.5-26-17.8-40.9-52-43.9l-58 1.5v179.2h63.7c-0.8 0-0.8 0 0 0zm-32-154h26c11.2 0 18.6 8.9 19.3 20.8 0 11.9-6.7 23.8-25.3 23.8h-20.8l0.8-44.6zm0 127.9v-58.7h26c21.6 1.5 29 9.7 29 30.5 0 20.1-12.6 28.3-34.2 28.3l-20.8-0.1z" />
	<polygon class="st0" points="724.2 400.7 754.6 400.7 754.6 269.9 712.3 269.9 712.3 294.4 724.2 294.4"></polygon>
	<polygon class="st0" points="774.7 400.7 805.2 400.7 805.2 213.4 774.7 226"></polygon>

	<path class="st0" d="m451.3 80.3h-30.5v130.2h29.7v-78c0-1.5 0-3.7 0.7-5.2 0-0.7 0-0.7 0.7-1.5 0.7-1.5 0.7-3 1.5-3.7 3.7-8.9 11.9-16.4 21.6-17.1h4.5c5.9 0 13.4 1.5 17.1 3.7v-29.9c-3-0.7-5.9-0.7-8.9-0.7h-2.2-3.7c-0.7 0-2.2 0-3 0.7-1.5 0-3.7 0-5.2 0.7-1.5 0-3 0.7-3.7 1.5-1.5 0.7-3 0.7-4.5 1.5s-3 1.5-4.5 2.2c-0.7 0.7-2.2 1.5-3 2.2-2.2 1.5-4.5 3.7-5.9 5.9v-3.7l-0.7-8.8z" />

	<path class="st0" d="m989.6 77.3c-15.6 0-26.8 5.2-34.9 14.9v-11.9h-29.7v39.4c-10.4-29-30.5-41.6-57.2-42.4h-3.7c-26 0-45.4 11.9-58.7 38.7-3.7-23-17.1-37.9-48.3-37.9h-2.2c-11.9 0-23.8 3-32 9.7v-64.8l-31.2 8.2v152.4l-11.9 3h-3-2.2-0.7c-5.2-0.7-8.9-2.2-11.9-5.2l-0.7-0.7c-1.5-1.5-2.2-3-3-5.2v-0.7c-0.7-2.2-1.5-4.5-1.5-7.4v-62.4h27.5v-26h-28.3v-36.6l-11.2 3.7-6.7 2.2-9.7 3h-0.7l-3.7 1.5v26.7h-9.7v26h9.6v67.7c0 3 0.7 5.9 1.5 8.9 0 0.7 0 1.5 0.7 1.5 0.7 2.2 1.5 4.5 2.2 5.9v0.7c0 0.7 0.7 1.5 0.7 2.2 0 0 0 0.7 0.7 0.7 1.5 3 3 5.2 5.2 7.4 1.5 2.2 3.7 3.7 5.2 5.2 0.7 0.7 2.2 1.5 3 1.5 0.7 0 1.5 0.7 1.5 0.7 0.7 0.7 1.5 0.7 2.2 1.5h0.7s0.7 0 0.7 0.7h0.7c0.7 0 1.5 0 2.2 0.7 0.7 0 1.5 0.7 2.2 0.7 1.5 0 3 0.7 4.5 0.7 2.2 0 4.5 0.7 6.7 0.7h0.7l26-3h30.5v-93.7c5.9-8.9 14.9-13.4 27.5-13.4 15.6 0.7 23.8 8.2 25.3 23v84h30.4v-29.7c12.6 21.6 28.3 32.7 53.5 32.7h8.2c11.9-0.7 20.8-1.5 32-5.9v-29.9c-5.9 4.5-9.7 5.9-14.1 8.2-3 1.5-8.9 2.2-14.1 2.2h-0.7c-20.8-0.7-37.2-8.9-37.9-32.7h92.9v55.8h29.7v-79.6c3.7-16.4 12.6-25.3 25.3-26.8h3.7c5.9 0 12.6 1.5 16.4 3.7v-29c-4.3-1.5-7.2-1.5-10.2-1.5zm-156.9 54.3c1.5-20.1 15.6-28.3 30.5-28.3h0.7c20.1 0 30.5 12.6 31.2 28.3h-62.4z" />

	<path class="st0" d="m381.4 301.1c17.1-9.7 23-21.6 22.3-36.4-1.5-26.8-18.6-41.6-52.8-44.6l-59.5 1.5v182.2h64.7 1.5c24.5 0 56.5-19.3 58-50.6 0.8-24.6-10.4-42.4-34.2-52.1zm-56.5-53.5h26c11.2 0 19.3 8.9 19.3 20.8s-6.7 23.8-25.3 23.8h-20.8l0.8-44.6zm21.6 129.4h-21.6v-59.5h26c22.3 2.2 29.7 9.7 29.7 30.5 0.1 20.8-13.3 29-34.1 29z" />

	<circle class="st0" cx="740.5" cy="243.1" r="17.8"></circle>

	<path class="st0" d="m663.9 321.2c-16.4-3-20.1-4.5-20.1-4.5-3-0.7-11.9-11.2-3-17.8 3.7-3 7.4-3.7 11.9-3.7 5.9 0 11.9 2.2 14.9 4.5 5.2 3.7 9.7 12.6 9.7 12.6l27.5-9.7s-5.2-14.1-13.4-22.3c-4.5-4.5-14.1-15.6-41.6-15.6h-1.5c-28.3 0-40.1 26-40.1 26v-22.3h-30.5v15.6s-0.7 0-0.7-0.7h-0.7c-0.7-0.7-1.5-0.7-2.2-1.5 0 0-0.7 0-0.7-0.7-0.7-0.7-2.2-1.5-3-2.2-1.5-0.7-3.7-2.2-5.9-3-0.7-0.7-2.2-0.7-3.7-1.5-0.7-0.7-2.2-0.7-3-1.5-1.5-0.7-3-0.7-4.5-1.5-2.2-0.7-5.2-1.5-7.4-1.5h-0.9-2.2c-2.2 0-5.2-0.7-8.2-0.7s-5.9 0-8.2 0.7c-2.2 0.7-5.2 0.7-7.4 1.5h-0.7c-0.7 0-2.2 0.7-3 0.7-0.7 0.7-2.2 0.7-3 1.5-1.5 0.7-2.2 0.7-3 1.5-2.2 0.7-3.7 2.2-5.9 3h-0.7c-0.7 0.7-2.2 1.5-3 1.5-0.7 0-0.7 0.7-0.7 0.7-0.7 0.7-1.5 0.7-2.2 1.5h-0.7c-0.7 0.7-1.5 0.7-1.5 0.7v-14.9h-17-1.5-3c-1.5 0-2.2 0.7-3.7 0.7-0.7 0-2.2 0.7-3 0.7-11.2 3.7-17.8 12.6-17.8 12.6v-11.9h-29.7v130.9h29.7v-69.9s-0.7-19.3 8.9-29c7.4-7.4 18.6-8.2 23-8.2h1.5s-21.6 25.3-12.6 62.5c5.2 19.3 25.3 45.4 57.2 48.3 3 0 5.2 0.7 7.4 0.7 27.5 0 43.9-14.9 43.9-14.9v14.9h29v-18.6s13.4 14.1 23.8 17.8c5.9 2.2 14.1 3.7 23.8 3.7 8.9 0 18.6-1.5 28.3-5.2 22.3-8.9 29.7-32.7 24.5-51.3-5.4-19.1-26.3-27.2-43.4-30.2zm-128.6 55.8c-22.3 0-40.1-17.8-40.1-40.1s17.8-40.1 40.1-40.1 40.1 17.8 40.1 40.1c0.1 22.2-17.8 40.1-40.1 40.1zm130.9 2.9c-3.7 0.7-6.7 0.7-9.7 0.7-9.7 0-15.6-3-19.3-7.4-5.9-5.2-9.7-15.6-9.7-15.6l-20.1 6.7v-38.7s11.2 16.4 37.9 21.6c19.3 3.7 32 8.9 32.7 14.9 1.6 3.7 3 14.9-11.8 17.8z" />
	<polygon class="st0" points="127.1 211.2 156.9 211.2 156.9 81 114.5 81 114.5 104.8 127.1 104.8"></polygon>

	<path class="st0" d="m278.8 211.2c-1.5-8.2-5.2-14.1-10.4-18.6-5.9-5.2-15.6-8.2-26.8-8.2h-0.7-1.5l-20.8 2.2c-5.9 0.7-10.4 1.5-13.4 1.5-4.5 0-6.7-1.5-6.7-3.7 0.7-4.5 3.7-7.4 10.4-8.9l10.4 1.5h5.2c12.6 0 24.5-3.7 34.2-12.6s14.9-20.8 14.9-35.7c-0.7-9.7-3-18.6-8.2-27.5l14.1-11.9 0.7-0.7-20.8-18.6-13.4 13.4c-8.2-4.5-17.8-6.7-28.3-6.7-14.9 0-28.3 5.2-38.7 14.9-11.2 10.4-16.4 22.3-15.6 35.7 0 13.4 5.2 24.5 16.4 33.5l7.4 5.2c-12.6 4.5-18.6 12.6-18.6 24.5 3 12.6 12.6 19.3 27.5 20.1 0 0 19.3-0.7 28.3-1.5h7.4c8.9 0 19.3 2.2 17.8 11.2-0.7 5.9-6.7 10.4-17.1 12.6-4.5 0.7-8.2 1.5-12.6 1.5-5.2 0-9.7-0.7-14.9-2.2-8.9-2.2-16.4-6.7-21.6-12.6l-18.6 23c11.2 9.7 28.3 16.4 49.8 18.6h3.7 1.5c32.7-1.5 52.8-13.4 58.7-33.5 1.1-3.2 1.1-11.3 0.3-16.5zm-87.7-83.3c0-7.4 2.2-13.4 7.4-17.8 5.2-5.2 11.2-7.4 17.8-7.4 5.9 0 12.6 2.2 17.8 7.4 5.2 4.5 7.4 10.4 7.4 17.8 0 6.7-2.2 12.6-7.4 17.1-5.9 5.2-11.9 7.4-17.8 7.4-7.4 0-13.4-2.2-17.8-7.4-4.4-4.5-7.4-10.4-7.4-17.1z" />

	<ellipse class="st0" cx="142.5" cy="46.8" rx="18.1" ry="17.8"></ellipse>

</svg>